<svg width="210" height="66" viewBox="0 0 210 66" fill="none" xmlns="http://www.w3.org/2000/svg">
<path d="M105.096 31.2119V27.0561H124.676V31.2119H117.377V50.8965H112.395V31.2119H105.096ZM127.9 50.8965V27.0561H143.964V31.2119H132.941V36.8926H143.138V41.0484H132.941V46.7407H144.011V50.8965H127.9ZM169.007 35.4026H163.908C163.815 34.7429 163.625 34.157 163.338 33.6448C163.05 33.1249 162.682 32.6825 162.232 32.3178C161.782 31.953 161.262 31.6736 160.672 31.4796C160.09 31.2856 159.457 31.1886 158.774 31.1886C157.54 31.1886 156.466 31.4952 155.55 32.1082C154.634 32.7136 153.924 33.5983 153.42 34.7623C152.915 35.9187 152.663 37.3233 152.663 38.9763C152.663 40.6759 152.915 42.1038 153.42 43.2601C153.932 44.4164 154.646 45.2895 155.561 45.8793C156.477 46.4691 157.537 46.764 158.739 46.764C159.415 46.764 160.039 46.6748 160.614 46.4963C161.196 46.3178 161.712 46.0578 162.162 45.7163C162.612 45.3671 162.984 44.9442 163.279 44.4475C163.582 43.9508 163.792 43.3843 163.908 42.7479L169.007 42.7712C168.875 43.8654 168.545 44.9209 168.017 45.9375C167.497 46.9464 166.795 47.8505 165.91 48.6498C165.033 49.4414 163.986 50.07 162.767 50.5356C161.557 50.9935 160.187 51.2224 158.658 51.2224C156.532 51.2224 154.63 50.7413 152.954 49.779C151.285 48.8167 149.966 47.4236 148.996 45.5999C148.034 43.7762 147.553 41.5683 147.553 38.9763C147.553 36.3765 148.042 34.1648 149.019 32.3411C149.997 30.5173 151.324 29.1282 153.001 28.1736C154.677 27.2113 156.563 26.7302 158.658 26.7302C160.039 26.7302 161.32 26.9242 162.499 27.3122C163.687 27.7003 164.738 28.2668 165.654 29.0118C166.57 29.749 167.315 30.6531 167.889 31.7241C168.471 32.795 168.844 34.0212 169.007 35.4026ZM172.621 50.8965V27.0561H177.662V36.8926H187.894V27.0561H192.923V50.8965H187.894V41.0484H177.662V50.8965H172.621Z" fill="#3A3A3A"/>
<path d="M2.07206 32V8.15965H11.4778C13.286 8.15965 14.8265 8.50499 16.0992 9.19568C17.372 9.8786 18.342 10.8293 19.0094 12.0477C19.6846 13.2583 20.0222 14.6552 20.0222 16.2384C20.0222 17.8215 19.6807 19.2184 18.9978 20.429C18.3149 21.6397 17.3254 22.5826 16.0294 23.2578C14.7411 23.9329 13.1813 24.2705 11.3498 24.2705H5.35477V20.2312H10.5349C11.505 20.2312 12.3043 20.0643 12.9329 19.7306C13.5693 19.3891 14.0427 18.9196 14.3531 18.3221C14.6713 17.7167 14.8304 17.0222 14.8304 16.2384C14.8304 15.4468 14.6713 14.7561 14.3531 14.1663C14.0427 13.5687 13.5693 13.107 12.9329 12.781C12.2966 12.4473 11.4895 12.2805 10.5116 12.2805H7.11253V32H2.07206ZM23.2961 32V8.15965H28.3366V27.8442H38.5572V32H23.2961ZM46.6127 32H41.2113L49.4414 8.15965H55.9369L64.1554 32H58.754L52.7823 13.6075H52.596L46.6127 32ZM46.2751 22.6292H59.0334V26.5637H46.2751V22.6292ZM63.195 8.15965H68.8408L74.277 18.4268H74.5098L79.9461 8.15965H85.5919L76.8962 23.5721V32H71.8907V23.5721L63.195 8.15965Z" fill="#FF4D00"/>
</svg>
