<svg width="104" height="33" viewBox="0 0 104 33" fill="none" xmlns="http://www.w3.org/2000/svg">
<path d="M52.0474 15.6097V13.5516H61.7441V15.6097H58.1295V25.3583H55.6621V15.6097H52.0474ZM63.341 25.3583V13.5516H71.2967V15.6097H65.8372V18.423H70.8874V20.4811H65.8372V23.3002H71.3197V25.3583H63.341ZM83.6986 17.6851H81.1735C81.1274 17.3584 81.0332 17.0683 80.891 16.8146C80.7488 16.5571 80.5663 16.338 80.3433 16.1574C80.1204 15.9768 79.8629 15.8384 79.5708 15.7423C79.2826 15.6462 78.9694 15.5982 78.6311 15.5982C78.0201 15.5982 77.4878 15.75 77.0343 16.0536C76.5807 16.3534 76.2291 16.7915 75.9793 17.368C75.7294 17.9407 75.6045 18.6363 75.6045 19.455C75.6045 20.2966 75.7294 21.0038 75.9793 21.5765C76.2329 22.1491 76.5865 22.5815 77.04 22.8736C77.4935 23.1657 78.0181 23.3117 78.6139 23.3117C78.9482 23.3117 79.2576 23.2675 79.542 23.1791C79.8303 23.0907 80.0858 22.962 80.3088 22.7929C80.5317 22.6199 80.7161 22.4105 80.8622 22.1645C81.0121 21.9185 81.1158 21.638 81.1735 21.3228L83.6986 21.3343C83.6332 21.8762 83.4699 22.3989 83.2085 22.9024C82.951 23.402 82.6032 23.8498 82.1651 24.2456C81.7308 24.6377 81.2119 24.949 80.6085 25.1796C80.009 25.4063 79.3306 25.5197 78.5735 25.5197C77.5204 25.5197 76.5788 25.2814 75.7487 24.8048C74.9224 24.3283 74.269 23.6384 73.7886 22.7352C73.312 21.832 73.0737 20.7386 73.0737 19.455C73.0737 18.1674 73.3158 17.0721 73.8001 16.1689C74.2844 15.2657 74.9416 14.5778 75.7717 14.1051C76.6019 13.6285 77.5358 13.3902 78.5735 13.3902C79.2576 13.3902 79.8918 13.4863 80.4759 13.6785C81.064 13.8706 81.5847 14.1512 82.0382 14.5201C82.4918 14.8853 82.8607 15.333 83.1451 15.8634C83.4334 16.3938 83.6178 17.001 83.6986 17.6851ZM85.4886 25.3583V13.5516H87.9848V18.423H93.0522V13.5516H95.5427V25.3583H93.0522V20.4811H87.9848V25.3583H85.4886Z" fill="white"/>
<path d="M1.02616 16V4.19335H5.68426C6.57975 4.19335 7.34265 4.36438 7.97295 4.70643C8.60325 5.04464 9.08367 5.51545 9.41419 6.11885C9.74856 6.7184 9.91574 7.4102 9.91574 8.19423C9.91574 8.97827 9.74664 9.67007 9.40843 10.2696C9.07021 10.8692 8.58019 11.3361 7.93836 11.6705C7.30037 12.0049 6.52786 12.1721 5.62084 12.1721H2.65188V10.1716H5.21729C5.69771 10.1716 6.09357 10.089 6.40488 9.92373C6.72003 9.75462 6.95447 9.5221 7.1082 9.22616C7.26578 8.92639 7.34457 8.58241 7.34457 8.19423C7.34457 7.80222 7.26578 7.46016 7.1082 7.16807C6.95447 6.87214 6.72003 6.64346 6.40488 6.48204C6.08973 6.31678 5.69002 6.23415 5.20577 6.23415H3.52239V16H1.02616ZM11.5371 16V4.19335H14.0334V13.9419H19.095V16H11.5371ZM23.0844 16H20.4094L24.4853 4.19335H27.7021L31.7722 16H29.0972L26.1398 6.89135H26.0476L23.0844 16ZM22.9172 11.3592H29.2356V13.3078H22.9172V11.3592ZM31.2966 4.19335H34.0926L36.7848 9.27805H36.9001L39.5923 4.19335H42.3884L38.0819 11.8262V16H35.603V11.8262L31.2966 4.19335Z" fill="#FF4D00"/>
</svg>
